Coordinates
nRows=4
nColumns=38

# SIMM Motion File Header:
name Coordinates
datacolumns 38
datarows 4
otherdata 1
range 2.05890000000000000000 2.06190000000000010000

Units are S.I. units (second, meters, Newtons, ...)
Angles are in degrees.

endheader
time	pelvis_tilt	pelvis_list	pelvis_rotation	pelvis_tx	pelvis_ty	pelvis_tz	hip_flexion_r	hip_adduction_r	hip_rotation_r	knee_angle_r	ankle_angle_r	subtalar_angle_r	mtp_angle_r	hip_flexion_l	hip_adduction_l	hip_rotation_l	knee_angle_l	ankle_angle_l	subtalar_angle_l	mtp_angle_l	lumbar_extension	lumbar_bending	lumbar_rotation	arm_flex_r	arm_add_r	arm_rot_r	elbow_flex_r	pro_sup_r	wrist_flex_r	wrist_dev_r	arm_flex_l	arm_add_l	arm_rot_l	elbow_flex_l	pro_sup_l	wrist_flex_l	wrist_dev_l
      2.05890000000000000000	     -0.72119059480192338000	     -9.64104766391065480000	    -11.15833919364163100000	      0.87162699880434713000	      1.01750244600978230000	     -0.30511262276441992000	     12.92546851524597300000	     18.02423164016674000000	      6.16469865640601180000	    -45.32776608581406900000	     29.52119332382364500000	      0.00000000000000019939	     -0.00000000000002149838	     26.69549989135469300000	    -10.49665346819449700000	     -1.86156649521147570000	   -100.31700173442579000000	      4.29717911343011490000	      0.00000000000000670172	      0.00000000000000496917	    -23.15226013118989500000	      9.41367301303928810000	     10.83250465503391700000	     -1.81925230123858570000	    -32.65804883205940000000	     -2.41788009253874310000	    100.90436137079777000000	    113.64728839534348000000	      0.00000000000000521920	      0.00000000000000370193	    -13.91317936799677000000	    -18.91617353080011600000	     13.86296249563232800000	    101.63366823685388000000	     97.84048784079594400000	      0.00000000000000200149	      0.00000000000000068976
      2.05989999999999980000	     -0.77577490811380745000	     -9.54838396834671240000	    -11.22555397890406900000	      0.87147629647061198000	      1.01777174734498300000	     -0.30485742688356909000	     12.69811518644202400000	     17.93849921977027900000	      6.32798041850598030000	    -45.16495467742890900000	     29.53556534206483900000	      0.00000000000000029905	     -0.00000000000002143944	     26.99456460324514500000	    -10.46456201974640600000	     -1.86840215570244990000	   -100.18015491308694000000	      4.36667170153068710000	      0.00000000000000672926	      0.00000000000000504673	    -23.07220565484263700000	      9.28020466923644350000	     10.99514823383868400000	     -1.74134327078013310000	    -32.65313607457033400000	     -2.44750132166358280000	    101.16033912612839000000	    113.58694537141179000000	      0.00000000000000534252	      0.00000000000000383141	    -14.03794784601600800000	    -18.98360620633556600000	     13.87589782023719700000	    101.79056362503977000000	     97.96054543891320100000	      0.00000000000000202057	      0.00000000000000069421
      2.06089999999999970000	     -0.83172412289881603000	     -9.45372573074688200000	    -11.29252290600514300000	      0.87133268068032654000	      1.01804639847510430000	     -0.30460155513261955000	     12.47111194745944100000	     17.85027691426496700000	      6.49169358972753140000	    -44.99895234883980100000	     29.54610460312827100000	      0.00000000000000039137	     -0.00000000000002139174	     27.29246382900235100000	    -10.43123874293187500000	     -1.87745264214241670000	   -100.03666727815758000000	      4.43729357143523820000	      0.00000000000000675118	      0.00000000000000513007	    -22.98863218440339300000	      9.14510456095311320000	     11.15628795551806700000	     -1.66569822712034530000	    -32.64735227230681900000	     -2.47690843942069840000	    101.41732663975814000000	    113.52578959583434000000	      0.00000000000000546600	      0.00000000000000395723	    -14.16444553608764400000	    -19.05142527079266300000	     13.88665041529674900000	    101.94911035393035000000	     98.08285604343190300000	      0.00000000000000203407	      0.00000000000000070270
      2.06190000000000010000	     -0.88896718660905361000	     -9.35714335573871740000	    -11.35912779806929000000	      0.87119617238543434000	      1.01832647334630950000	     -0.30434525787122657000	     12.24444974769989100000	     17.75957676005574700000	      6.65566238581088050000	    -44.82979698152833200000	     29.55269711224895000000	      0.00000000000000047864	     -0.00000000000002134812	     27.58911157773679400000	    -10.39671205431285000000	     -1.88864004553681490000	    -99.88655466873559900000	      4.50899815928079840000	      0.00000000000000677630	      0.00000000000000521096	    -22.90164702113353800000	      9.00848192839384690000	     11.31586314372161300000	     -1.59232970544683790000	    -32.64069178744414800000	     -2.50610362071214030000	    101.67526338797767000000	    113.46390144348094000000	      0.00000000000000558969	      0.00000000000000407805	    -14.29259823211672000000	    -19.11959550903070200000	     13.89528602652782800000	    102.10909996662457000000	     98.20709106899992900000	      0.00000000000000205735	      0.00000000000000071564
